<?xml version="1.0" encoding="utf-8"?>
<!-- Generator: Adobe Illustrator 14.0.0, SVG Export Plug-In  -->
<!DOCTYPE svg PUBLIC "-//W3C//DTD SVG 1.1//EN" "http://www.w3.org/Graphics/SVG/1.1/DTD/svg11.dtd" [
	<!ENTITY ns_flows "http://ns.adobe.com/Flows/1.0/">
]>
<svg version="1.1"
	 xmlns="http://www.w3.org/2000/svg" xmlns:xlink="http://www.w3.org/1999/xlink" xmlns:a="http://ns.adobe.com/AdobeSVGViewerExtensions/3.0/"
	 x="0px" y="0px" width="160px" height="135px" viewBox="0 -0.427 160 135" enable-background="new 0 -0.427 160 135"
	 xml:space="preserve">
<defs>
</defs>
<path d="M30.28,34.25c4.204,0,8.181,0.784,11.928,2.349c3.745,1.566,6.996,3.724,9.749,6.474c2.753,2.75,4.932,5.958,6.538,9.625
	C60.1,56.365,60.903,60.3,60.903,64.5c0,4.202-0.785,8.154-2.351,11.859c-1.568,3.706-3.728,6.952-6.48,9.739
	c-2.752,2.789-5.964,4.984-9.634,6.59c-3.67,1.603-7.609,2.404-11.814,2.404c-3.059,0-6.042-0.419-8.946-1.26v-17.76
	c2.523,1.91,5.505,2.864,8.946,2.864c1.988,0,3.843-0.382,5.563-1.146c1.72-0.762,3.229-1.794,4.53-3.093
	c1.299-1.299,2.311-2.825,3.039-4.584c0.726-1.756,1.089-3.626,1.089-5.614c0-1.985-0.383-3.838-1.146-5.557
	c-0.765-1.719-1.817-3.226-3.154-4.526c-1.339-1.297-2.887-2.31-4.645-3.037c-1.759-0.725-3.632-1.089-5.62-1.089
	c-1.99,0-3.843,0.384-5.563,1.146c-1.72,0.764-3.231,1.795-4.53,3.093c-1.301,1.3-2.313,2.827-3.04,4.583
	c-0.728,1.758-1.09,3.629-1.09,5.614v69.164H0V64.729c0-4.2,0.783-8.153,2.351-11.859c1.566-3.704,3.728-6.932,6.479-9.682
	c2.753-2.75,5.964-4.928,9.635-6.532C22.136,35.053,26.073,34.25,30.28,34.25z"/>
<path d="M89.23,79.205V95.34h-3.555c-4.205,0-8.163-0.807-11.871-2.42c-3.709-1.614-6.938-3.803-9.691-6.569
	c-2.752-2.766-4.915-6.012-6.48-9.738c-1.568-3.726-2.351-7.702-2.351-11.929V0H71.34v64.684c0,1.999,0.381,3.881,1.146,5.646
	c0.763,1.769,1.796,3.306,3.097,4.61c1.299,1.309,2.81,2.345,4.53,3.112c1.721,0.769,3.573,1.152,5.563,1.152H89.23z"/>
<path d="M148.127,95.11h-15.943V64.717c-0.076-2.065-0.498-3.975-1.262-5.735c-0.764-1.758-1.816-3.307-3.154-4.646
	c-1.338-1.337-2.887-2.369-4.645-3.097c-1.76-0.726-3.67-1.089-5.734-1.089c-1.99,0-3.844,0.383-5.562,1.147
	c-1.721,0.765-3.232,1.817-4.531,3.154c-1.301,1.339-2.312,2.888-3.039,4.645c-0.729,1.76-1.09,3.67-1.09,5.735
	c0,3.518,1.146,6.652,3.441,9.405l18.236,20.874h-21.219l-8.258-9.405c-0.307-0.533-0.613-0.955-0.918-1.261
	c-0.307-0.305-0.613-0.649-0.918-1.033c-1.988-2.521-3.555-5.37-4.701-8.544c-1.148-3.173-1.721-6.519-1.721-10.036
	c0-4.204,0.783-8.161,2.35-11.871c1.566-3.708,3.729-6.957,6.48-9.749c2.754-2.791,5.965-4.99,9.635-6.596
	c3.672-1.605,7.57-2.408,11.699-2.408c4.205-0.075,8.16,0.688,11.871,2.294c3.709,1.605,6.957,3.785,9.75,6.537
	c2.789,2.753,5.006,6.004,6.65,9.75c1.645,3.747,2.504,7.723,2.582,11.928V95.11z"/>
<polygon points="91.617,84.077 91.617,94.735 100.588,94.735 "/>
<polygon points="150.219,84.077 150.219,94.735 159.189,94.735 "/>
<path d="M58.149,83.054c-2.89,5.463-12.042,11.682-12.042,11.682h12.042h12.042C70.191,94.735,61.659,88.772,58.149,83.054z"/>
</svg>
